Patient4_TMGait_0pt6_01_left_40_EMG.mot
version=1
nRows=13
nColumns=33
inDegrees=no
endheader
time	1LAddLong	2LGlutMax	3LGlutMed	4LIliopsoas	5LSemiMemb	6LBicFemLong	7LRecFem	8LVastMed	9LVastLat	10LGasMed	11LTibAnt	12lTibPost	13LPeroneusLong	14LSol	15LExtDigLong	16LFlexDigLong	17RAddLong	18RGlutMax	19RGlutMed	20RIliopsoas	21RSemiMemb	22RBicFemLong	23RRecFem	24RVastMed	25RVastLat	26RGasMed	27RTibAnt	28RTibPost	29RPeroneusLong	30RSol	31RExtDigLong	32RFlexDigLong
49.945	0.014801	-0.092163	-0.020599	0.012054	-0.15747	-0.026093	-0.037079	0.020905	0.038452	-0.058746	0.03479	-0.001068	-0.014343	0.02243	0.000763	-0.002747	-0.011139	0.20813	-0.048981	-0.032806	0	0.14023	-0.39932	-0.1799	0.001068	-0.013885	0.23132	0.018311	-0.078583	-0.09552	-0.007935	-0.012512
49.946	0.023041	-0.089874	-0.022888	0.002899	-0.1033	-0.093536	-0.035248	0.001831	0.023651	-0.042267	0.029602	-0.000305	-0.041962	-0.071716	-0.050201	-0.01236	0.021667	0.20355	-0.13916	-0.056152	-0.008087	0.11459	-0.062561	-0.34271	0.21164	-0.019531	0.50415	0.020447	-0.057373	-0.055542	-0.004883	-0.00412
49.947	0.043182	-0.085907	-0.047302	0.009003	0.00946	-0.13718	-0.040741	-0.007782	0.012054	-0.050354	0.07843	-0.000153	-0.097046	-0.18738	-0.00351	-0.014496	0.025177	0.22095	-0.13016	-0.00885	0.044861	0.094604	0.16312	-0.051422	0.27863	-0.016327	0.59616	0.011749	-0.080261	0.047455	-0.002136	-0.007782
49.948	0.035553	-0.076599	-0.047913	0.014496	0.12024	-0.08667	-0.031891	0.00351	0.023804	-0.052185	0.033417	0.003204	-0.0383	-0.19211	0.046082	-0.003662	0.005493	0.25971	-0.016479	0.075531	0.027313	0.14587	0.087891	0.41275	0.15335	-0.014038	0.1503	0.000916	0.025787	-0.081482	-0.003052	-0.00946
49.949	0.031738	-0.081177	-0.068665	0.006866	0.088806	-0.053253	-0.066376	0.009766	0.011749	-0.06958	-0.042114	-0.002899	-0.042114	-0.20813	0.055084	-0.013123	-0.01709	0.29434	-0.10086	0.0737	0.010681	0.18845	-0.053558	0.54886	0.012665	-0.001526	0.30258	-0.001221	0.15839	-0.159	-0.006256	-0.001221
49.95	0.020905	-0.070343	-0.098877	0.012207	0.048218	-0.056305	-0.05722	-0.000305	0.012512	-0.06485	0.016785	-0.006866	-0.18951	-0.082092	0.046844	0.003967	-0.002441	0.36209	-0.17838	0.12589	-0.031128	0.13809	-0.10422	0.2858	-0.049896	0	0.25772	-0.000916	0.28778	-0.24155	-0.002747	-0.002747
49.951	0.012817	-0.070953	-0.11429	0.00824	0.039825	-0.076447	-0.033875	0.002594	0.01236	-0.055542	-0.018921	-0.004272	-0.18097	0.011139	0.02594	-0.000458	0.014343	0.40024	-0.10544	0.054169	-0.06012	0.20584	-0.73044	-0.10819	-0.17868	0.009308	0.038452	0.00061	0.52811	-0.22018	-0.003357	0.000916
49.952	0.015717	-0.04837	-0.076752	0.015259	0.041656	-0.033569	-0.038452	0.003204	0.013885	-0.036163	-0.018005	-0.009918	-0.093994	0.013885	0.009613	0.005035	0.006104	0.39902	-0.20157	0.026245	-0.016785	0.19775	-1.2665	-0.1976	-0.10452	0.00885	-0.53909	0.003204	0.40909	-0.14832	-0.001984	-0.003967
49.953	0.008698	-0.090942	0.028229	0.01236	0.037842	0.020447	-0.046844	0.006256	0.014648	-0.044861	0.009003	-0.005493	-0.17212	-0.21133	0.000763	0.01236	0	0.37308	-0.29953	0.032806	-0.015564	0.13657	-0.77164	-0.17319	0.27954	-0.008545	-0.6871	-0.002136	0.051575	-0.02182	0.009613	-0.009308
49.954	0.010529	-0.12283	-0.026245	0.018311	0.033112	0.04776	-0.036621	0.006561	0.008545	-0.050507	0.004578	-0.020905	-0.15305	-0.30182	0.005188	0.004578	0.006256	0.41718	-0.022278	-0.006866	-0.033875	0.077209	-0.37613	-0.05127	0.57693	-0.012207	-0.54306	-0.007172	-0.069885	-0.029602	-0.003662	-0.007324
49.955	0.011292	-0.13077	-0.071259	-0.002441	0.028381	0.034332	-0.050201	0.000153	0.025177	-0.067444	0.012512	-0.011292	-0.12283	-0.28122	0.021057	-0.006256	0.014496	0.38559	0.061493	0.00473	-0.043945	0.091858	-0.14023	0.070343	0.51315	-0.00412	-0.59357	-0.004883	0.016327	-0.18784	-0.005341	0.000763
49.956	0.002136	-0.13886	-0.097656	-0.006714	-0.011292	0.008392	-0.050354	0.008087	0.018921	-0.073242	0.018311	-0.021667	-0.1004	-0.26077	0.023956	0.001068	0.007172	0.39688	-0.17532	0.016174	-0.031281	0.11124	0.00473	0.089264	0.34271	-0.00061	-0.89905	-0.000153	0.036163	-0.11398	-0.003052	-0.00946
49.957	-0.00351	-0.13123	-0.1387	0.004883	-0.019379	-0.014648	-0.044861	0.007324	0.004272	-0.077515	0.00885	-0.021362	-0.067139	-0.10635	0.018311	-0.016174	-0.013123	0.33936	-0.10529	-0.039215	-0.008392	0.13153	0.18997	0.13916	0.2417	-0.001831	-0.28915	-0.011597	-0.042725	0.084534	0.006256	-0.003357
